name C:\Users\r0593348\3dpredictsim\Results\MidTarsalJoint\Fal_s1_bCst_PF_Natali2010_ls150_MT_k250_MTP_T10_ig24.mot
datacolumns 128
datarows 4
range 1.71522916 1.74953375
endheader
time	pelvis_tilt	pelvis_list	pelvis_rotation	pelvis_tx	pelvis_ty	pelvis_tz	hip_flexion_l	hip_adduction_l	hip_rotation_l	hip_flexion_r	hip_adduction_r	hip_rotation_r	knee_angle_l	knee_angle_r	ankle_angle_l	ankle_angle_r	subtalar_angle_l	subtalar_angle_r	mtj_angle_l	mtj_angle_r	mtp_angle_l	mtp_angle_r	lumbar_extension	lumbar_bending	lumbar_rotation	arm_flex_l	arm_add_l	arm_rot_l	arm_flex_r	arm_add_r	arm_rot_r	elbow_flex_l	elbow_flex_r	pro_sup_l	pro_sup_r	glut_med1_l/activation	glut_med2_l/activation	glut_med3_l/activation	glut_min1_l/activation	glut_min2_l/activation	glut_min3_l/activation	semimem_l/activation	semiten_l/activation	bifemlh_l/activation	bifemsh_l/activation	sar_l/activation	add_long_l/activation	add_brev_l/activation	add_mag1_l/activation	add_mag2_l/activation	add_mag3_l/activation	tfl_l/activation	pect_l/activation	grac_l/activation	glut_max1_l/activation	glut_max2_l/activation	glut_max3_l/activation	iliacus_l/activation	psoas_l/activation	quad_fem_l/activation	gem_l/activation	peri_l/activation	rect_fem_l/activation	vas_med_l/activation	vas_int_l/activation	vas_lat_l/activation	med_gas_l/activation	lat_gas_l/activation	soleus_l/activation	tib_post_l/activation	flex_dig_l/activation	flex_hal_l/activation	tib_ant_l/activation	per_brev_l/activation	per_long_l/activation	per_tert_l/activation	ext_dig_l/activation	ext_hal_l/activation	ercspn_l/activation	intobl_l/activation	extobl_l/activation	glut_med1_r/activation	glut_med2_r/activation	glut_med3_r/activation	glut_min1_r/activation	glut_min2_r/activation	glut_min3_r/activation	semimem_r/activation	semiten_r/activation	bifemlh_r/activation	bifemsh_r/activation	sar_r/activation	add_long_r/activation	add_brev_r/activation	add_mag1_r/activation	add_mag2_r/activation	add_mag3_r/activation	tfl_r/activation	pect_r/activation	grac_r/activation	glut_max1_r/activation	glut_max2_r/activation	glut_max3_r/activation	iliacus_r/activation	psoas_r/activation	quad_fem_r/activation	gem_r/activation	peri_r/activation	rect_fem_r/activation	vas_med_r/activation	vas_int_r/activation	vas_lat_r/activation	med_gas_r/activation	lat_gas_r/activation	soleus_r/activation	tib_post_r/activation	flex_dig_r/activation	flex_hal_r/activation	tib_ant_r/activation	per_brev_r/activation	per_long_r/activation	per_tert_r/activation	ext_dig_r/activation	ext_hal_r/activation	ercspn_r/activation	intobl_r/activation	extobl_r/activation	
          1.71522916	         -2.92931926	          2.10558432	         -5.43159999	          2.14403645	          0.91931648	          0.00187964	         29.54416805	          3.29675443	         -2.00799223	        -16.60707916	         -0.99545198	          6.74311587	        -11.05029318	         -8.03130709	          5.80933807	         -2.38350826	         -4.92836758	          8.48938425	         -0.02642853	          5.89360328	         -0.76344461	          9.09373666	         -1.92583818	         -0.17001073	          2.02188013	         -5.08518825	        -13.45625083	          6.28391035	          4.76234650	        -13.45046295	         15.69015421	         17.18608525	         34.67067129	         86.51662706	         86.51662706	          0.05000202	          0.05000082	          0.05952909	          0.05000013	          0.05000019	          0.05000229	          0.21615472	          0.05952938	          0.07647085	          0.05000087	          0.05000031	          0.09108439	          0.17943375	          0.20548686	          0.16857583	          0.10807901	          0.05952925	          0.05000290	          0.12010540	          0.05953147	          0.07081884	          0.10816538	          0.05000006	          0.05000010	          0.19957649	          0.05000122	          0.05000040	          0.05000009	          0.06174303	          0.06331236	          0.05191563	          0.05952903	          0.05952900	          0.05952903	          0.05067980	          0.05000126	          0.05000486	          0.45923059	          0.29527993	          0.18174510	          0.07890898	          0.44983849	          0.05000144	          0.05952900	          0.13732395	          0.11267188	          0.32115952	          0.10368360	          0.08103648	          0.30761465	          0.21301359	          0.11795694	          0.05000148	          0.05000026	          0.05000019	          0.05953229	          0.11489913	          0.05000006	          0.05000008	          0.05000013	          0.05000043	          0.05000049	          0.32723322	          0.05000029	          0.05000024	          0.05584860	          0.05007314	          0.05000164	          0.41637569	          0.63211955	          0.05000022	          0.05000119	          0.06359643	          0.24240296	          0.05001091	          0.05000277	          0.05000236	          0.30456575	          0.41401324	          0.35637547	          0.26806148	          0.26073953	          0.34527311	          0.05000006	          0.05759331	          0.13992208	          0.05000030	          0.05000009	          0.05000033	          0.05000000	          0.05000002	          0.05000004	
          1.72666402	         -2.92968874	          2.19380495	         -5.71308116	          2.16112091	          0.91843265	          0.00168196	         28.95177392	          3.67934973	         -1.81857444	        -16.56396912	         -1.30386589	          6.53501473	        -11.08492583	         -9.78839594	          5.11671788	         -2.86979686	         -5.32903472	          9.47836467	         -0.06782223	          5.00709905	         -0.76789032	         10.68458683	         -1.73762567	         -0.36854382	          2.09558018	         -5.97069396	        -13.45060526	          6.02051466	          4.53548279	        -13.45695474	         16.10887964	         16.79020771	         35.80763443	         86.51662706	         86.51662706	          0.05518888	          0.05000053	          0.05000014	          0.05952938	          0.05952862	          0.05000043	          0.18155411	          0.05000034	          0.06422990	          0.05000022	          0.05000298	          0.11961056	          0.25085807	          0.23143859	          0.16619654	          0.10096112	          0.05000031	          0.07088028	          0.10088012	          0.05000215	          0.05948266	          0.11170937	          0.07087383	          0.07060612	          0.54581301	          0.16961798	          0.14494016	          0.08413119	          0.19424159	          0.19321353	          0.16603547	          0.05000002	          0.05000004	          0.05000000	          0.05000014	          0.05000128	          0.05000098	          0.52391070	          0.24801524	          0.18438728	          0.20519273	          0.47897038	          0.05952968	          0.05000003	          0.11534197	          0.09463606	          0.26975042	          0.08708659	          0.06806471	          0.25837371	          0.17891575	          0.09907517	          0.05000219	          0.05000047	          0.05000061	          0.05000284	          0.09650703	          0.09506778	          0.07572338	          0.05002938	          0.05000754	          0.05000293	          0.27485189	          0.08025682	          0.05002177	          0.05000203	          0.05000105	          0.05000133	          0.34972489	          0.53954097	          0.05000090	          0.05003884	          0.05952909	          0.20360063	          0.05000088	          0.13055371	          0.12752827	          0.25581272	          0.34774059	          0.31911805	          0.24317467	          0.21900404	          0.29010962	          0.05000004	          0.05000066	          0.13952736	          0.05000020	          0.05000005	          0.05000023	          0.05000007	          0.07335834	          0.05826455	
          1.73809888	         -2.92615862	          2.28301224	         -5.96463347	          2.17856046	          0.91757347	          0.00150342	         28.23376960	          3.99014582	         -1.56626403	        -16.47048286	         -1.61210330	          6.31903441	        -11.51312024	        -11.62467767	          4.43929821	         -3.47504440	         -5.73375259	         10.43229940	         -0.23590028	          3.95678724	         -0.76525242	         12.36571511	         -1.52551880	         -0.57847906	          2.15859607	         -6.89252770	        -13.45103870	          5.80569820	          4.22202085	        -13.46195042	         16.44742729	         16.44632797	         36.92908150	         86.51662706	         86.51662706	          0.23583141	          0.05000014	          0.18260146	          0.05000036	          0.05000016	          0.05000045	          0.17024207	          0.09306895	          0.07865681	          0.05000028	          0.05000090	          0.10046411	          0.21070239	          0.19439153	          0.13959313	          0.10918700	          0.05000070	          0.05953554	          0.09053944	          0.05000065	          0.05000134	          0.09382777	          0.05952902	          0.05950209	          0.45844260	          0.14246664	          0.12173975	          0.07066399	          0.16314861	          0.16228512	          0.13945756	          0.05333649	          0.05478127	          0.05280805	          0.05000085	          0.05000096	          0.05000085	          0.44004659	          0.26827386	          0.15487203	          0.17234677	          0.55830961	          0.05000055	          0.05000001	          0.12025837	          0.07948730	          0.33853360	          0.07314633	          0.05716938	          0.21701500	          0.15027608	          0.08321587	          0.05000436	          0.05000120	          0.05000076	          0.05000017	          0.08105901	          0.13015972	          0.08092452	          0.05953030	          0.05953013	          0.05952942	          0.23085577	          0.08057197	          0.05188917	          0.05002304	          0.05005397	          0.05952843	          0.29763635	          0.53515966	          0.05673809	          0.05000128	          0.05000018	          0.17100950	          0.13127041	          0.10965655	          0.10711510	          0.21486378	          0.29207641	          0.26803557	          0.20424886	          0.18394746	          0.24367088	          0.05000002	          0.05000082	          0.16632361	          0.05000014	          0.05000007	          0.05000017	          0.05000008	          0.06161559	          0.05952953	
          1.74953375	         -2.92033999	          2.37448699	         -6.18045293	          2.19619467	          0.91675810	          0.00132683	         27.39710683	          4.24491309	         -1.30452999	        -16.30380096	         -1.91738092	          6.10206745	        -11.91406441	        -13.55971957	          3.79934777	         -4.21411321	         -6.14409859	         11.33390020	         -0.17856575	          2.79514459	         -0.74006506	         14.03288063	         -1.30555864	         -0.80067096	          2.21147794	         -7.81245445	        -13.45782801	          5.65484487	          3.84402706	        -13.46827459	         16.71562209	         16.13270933	         38.02926500	         86.51662706	         86.51662706	          0.30272279	          0.26057679	          0.30826076	          0.15086092	          0.19376135	          0.17150861	          0.14299078	          0.07817122	          0.06606597	          0.07852842	          0.05000651	          0.08438246	          0.17697447	          0.16327467	          0.11724818	          0.13008273	          0.05000068	          0.05000585	          0.07604696	          0.19007376	          0.14287764	          0.10303839	          0.05000012	          0.05000010	          0.38505796	          0.11966161	          0.11949291	          0.05935258	          0.13703322	          0.13630866	          0.11713444	          0.05000026	          0.05000060	          0.05000005	          0.05000008	          0.05000028	          0.05000037	          0.56293415	          0.33766004	          0.18137136	          0.49315405	          0.51805828	          0.23595343	          0.06901562	          0.10100836	          0.06676346	          0.30382273	          0.06143754	          0.05000011	          0.35697284	          0.12622093	          0.06989526	          0.05000241	          0.05000020	          0.05000018	          0.05000044	          0.07087209	          0.10932505	          0.06797072	          0.05000123	          0.05000147	          0.05000070	          0.21374970	          0.06767620	          0.05000060	          0.05000151	          0.05000081	          0.05000057	          0.24999352	          0.50224653	          0.05000010	          0.05000076	          0.05000052	          0.14363550	          0.11025874	          0.09210425	          0.12915880	          0.18046969	          0.24532260	          0.22513006	          0.17155400	          0.15450242	          0.20466564	          0.05883889	          0.10376987	          0.16054515	          0.05000164	          0.10013637	          0.05000188	          0.06287532	          0.05175254	          0.05000042	
